<?xml version="1.0" standalone="no"?>
<!DOCTYPE svg PUBLIC "-//W3C//DTD SVG 20010904//EN"
 "http://www.w3.org/TR/2001/REC-SVG-20010904/DTD/svg10.dtd">
<svg version="1.0" xmlns="http://www.w3.org/2000/svg"
 width="512.000000pt" height="512.000000pt" viewBox="0 0 512.000000 512.000000"
 preserveAspectRatio="xMidYMid meet">
<metadata>
Created by potrace 1.14, written by Peter Selinger 2001-2017
</metadata>
<g transform="translate(0.000000,512.000000) scale(0.100000,-0.100000)"
fill="#000000" stroke="none">
<path d="M2495 4926 c-81 -30 -85 -33 -285 -286 -15 -19 -47 -60 -72 -90 -24
-30 -111 -140 -193 -245 -82 -104 -151 -192 -155 -195 -3 -3 -19 -23 -35 -45
-17 -22 -32 -42 -35 -45 -3 -3 -55 -68 -115 -145 -131 -166 -133 -169 -166
-209 -14 -17 -65 -83 -115 -146 -49 -63 -96 -124 -106 -135 -14 -17 -406 -513
-486 -615 -15 -19 -47 -60 -72 -91 -25 -31 -57 -72 -72 -90 -14 -19 -57 -73
-95 -120 -37 -48 -79 -101 -93 -120 -14 -18 -36 -47 -51 -63 -76 -92 -290
-367 -313 -404 -35 -56 -44 -135 -22 -202 40 -122 205 -348 386 -530 122 -123
143 -142 245 -225 246 -201 577 -377 907 -485 110 -35 303 -85 363 -93 22 -3
47 -8 55 -11 8 -3 35 -7 60 -11 25 -3 79 -10 120 -15 171 -23 439 -30 645 -17
539 33 1038 193 1455 465 95 61 218 150 240 172 3 3 34 30 70 60 244 207 512
551 552 707 14 56 5 130 -20 175 -16 27 -301 397 -380 493 -26 31 -225 284
-247 314 -11 15 -191 245 -401 511 -210 267 -557 710 -773 985 -216 275 -400
509 -409 520 -10 11 -31 38 -47 60 -50 67 -59 77 -88 107 -61 62 -176 92 -252
64z m224 -1181 c78 -99 152 -193 165 -210 13 -16 52 -65 86 -108 36 -47 59
-85 56 -93 -5 -13 -135 -82 -168 -88 -7 -2 -20 -6 -28 -9 -92 -34 -346 -40
-479 -11 -87 20 -251 95 -251 115 0 4 21 33 48 66 26 33 61 77 77 98 17 21 50
64 75 95 25 32 57 73 72 91 144 184 190 240 197 237 5 -2 72 -84 150 -183z
m-852 -1100 c146 -73 316 -123 493 -144 96 -11 350 -11 426 1 33 4 70 10 84
12 174 27 367 102 534 209 67 43 80 48 90 35 6 -8 23 -30 38 -49 15 -19 57
-72 93 -119 37 -47 74 -94 83 -105 10 -11 64 -81 122 -155 57 -74 109 -140
115 -147 5 -6 62 -77 125 -158 63 -81 139 -177 167 -214 29 -36 53 -71 53 -76
0 -11 -94 -110 -176 -186 -59 -54 -239 -189 -253 -189 -5 0 -11 -4 -13 -8 -7
-19 -225 -133 -349 -183 -138 -55 -381 -121 -504 -135 -27 -4 -53 -8 -56 -10
-30 -17 -491 -25 -644 -11 -152 13 -351 54 -505 102 -240 75 -534 229 -687
360 -6 6 -26 21 -45 35 -54 41 -230 219 -226 229 2 8 300 386 483 616 28 34
64 79 80 100 51 65 163 207 211 267 l45 57 62 -44 c35 -24 104 -64 154 -90z"/>
</g>
</svg>
